<svg width="256" height="256" viewBox="0 0 256 256" fill="none" xmlns="http://www.w3.org/2000/svg">
<g clip-path="url(#clip0_435_643)">
<rect width="256" height="256" rx="128" fill="#9B9B9B"></rect>
<path d="M443.365 116.484C438.724 108.931 433.021 102.836 426.256 98.2202C417.322 92.1248 406.892 89.0771 394.987 89.0771C383.082 89.0771 371.524 92.0807 360.942 98.0656C350.36 104.051 341.881 112.664 335.528 123.883C329.153 135.102 325.965 148.861 325.965 165.115C325.965 176.466 327.613 186.559 330.736 195.526C321.151 199.788 309.853 204.315 299.38 207.275C291.855 209.417 282.683 211.294 276.286 206.369C274.313 204.867 273.098 202.902 273.098 202.902C272.686 202.239 272.339 201.555 272.036 200.87C266.983 189.231 277.11 174.545 280.514 169.974C280.514 169.974 280.558 170.018 280.579 170.04C282.661 166.882 284.873 163.856 287.193 160.875C294.891 150.936 303.608 139.673 303.326 121.498C303.131 106.877 297.71 97.381 293.243 91.9702C282.509 79.0286 266.766 76.5109 255.859 75.76C209.779 72.5577 168.752 94.3112 164.112 96.873C141.408 109.572 121.48 126.82 104.87 148.132L130.631 168.98C144.487 151.202 161.076 136.824 179.898 126.268C180.375 126.003 190.242 120.769 204.77 116.109C205.464 121.034 205.833 126.025 205.638 131.016C204.879 152.88 195.966 173.132 180.57 188.039C165.24 202.858 145.355 210.521 124.451 209.837C81.2555 208.268 47.3626 170.371 48.9239 125.384C50.4852 80.3757 87.3489 44.9076 130.111 46.564C146.656 47.1603 162.29 53.0348 175.323 63.5693L195.771 37.3105C177.231 22.2929 154.939 13.9227 131.325 13.0614C70.1964 11.0076 18.3054 60.6982 16.0719 124.17C13.8818 187.641 61.978 241.086 123.302 243.317C124.646 243.361 125.947 243.383 127.27 243.383C155.59 243.383 182.435 232.451 203.231 212.31C224.937 191.33 237.471 162.884 238.533 132.187C238.793 124.545 238.251 116.904 237.059 109.373C237.059 109.373 237.102 109.373 237.124 109.373C237.102 109.307 237.059 109.263 237.037 109.196C240.008 108.225 244.518 107.12 250.069 107.076C256.314 107.032 265.379 106.9 269.607 112.973C271.32 115.424 272.339 119.002 271.927 122.447C271.689 124.369 271.103 125.627 270.041 127.836C268.132 131.789 266.116 134.152 261.02 140.689C259.762 142.301 258.7 143.649 257.767 144.841C251.349 153.432 244.388 164.232 240.571 180.53C238.511 189.32 236.538 202.571 242.913 216.064C243.802 217.964 248.833 227.813 259.849 235.278C266.875 240.048 275.635 241.97 285.176 241.948C306.167 241.948 330.844 232.672 349.471 223.971C353.006 227.173 356.757 230.088 360.942 232.451C371.524 238.436 382.865 241.418 394.987 241.418C407.108 241.418 417.322 238.37 426.256 232.275C433.021 227.659 438.703 221.519 443.365 213.834V236.603C443.365 247.712 441.37 256.811 437.358 263.878C433.347 270.923 428.164 276.179 421.789 279.58C415.414 283.003 408.843 284.704 402.078 284.704C394.076 284.704 387.094 283.158 381.13 280.066C375.167 276.952 370.548 272.8 367.252 267.566C363.956 262.332 362.221 256.391 362.026 249.766H328.741C329.153 262.597 332.34 273.926 338.303 283.776C344.267 293.604 352.68 301.245 363.566 306.722C374.452 312.177 387.484 314.894 402.685 314.894C415.63 314.894 427.644 312.045 438.724 306.391C449.805 300.737 458.804 292.124 465.678 280.574C472.552 269.024 476 254.381 476 236.625V92.3015H443.343V116.484H443.365ZM437.358 190.446C433.347 197.292 428.272 202.482 422.092 206.016C415.934 209.549 409.559 211.316 402.988 211.316C395.377 211.316 388.351 209.549 381.889 206.016C375.427 202.482 370.223 197.248 366.32 190.292C362.417 183.335 360.465 174.943 360.465 165.115C360.465 155.287 362.417 146.939 366.32 140.093C370.223 133.247 375.406 128.057 381.889 124.545C388.373 121.012 395.399 119.245 402.988 119.245C407.932 119.245 412.746 120.195 417.474 122.138C422.201 124.059 426.516 126.997 430.419 130.95C434.322 134.903 437.445 139.717 439.809 145.393C442.172 151.069 443.343 157.65 443.343 165.115C443.343 175.163 441.348 183.622 437.337 190.446H437.358Z" fill="#5C5C5C"></path>
<path d="M242 141H254.5L262 144.5L250 201H229.5L242 141Z" fill="#9B9B9B"></path>
</g>
<defs>
<clipPath id="clip0_435_643">
<rect width="256" height="256" rx="128" fill="#9B9B9B"></rect>
</clipPath>
</defs>
</svg>