<svg width="124" height="42" viewBox="0 0 124 42" fill="none" xmlns="http://www.w3.org/2000/svg">
<g clip-path="url(#clip0_2179_697)">
<path d="M59.4495 14.3964C58.804 13.3457 58.0106 12.4978 57.0695 11.8557C55.8267 11.0077 54.3757 10.5838 52.7197 10.5838C51.0636 10.5838 49.4558 11.0016 47.9837 11.8342C46.5117 12.6667 45.3322 13.8649 44.4484 15.4256C43.5615 16.9862 43.1181 18.9002 43.1181 21.1614C43.1181 22.7405 43.3473 24.1445 43.7817 25.3918C42.4484 25.9847 40.8768 26.6145 39.4198 27.0262C38.3731 27.3242 37.0971 27.5853 36.2072 26.9002C35.9327 26.6913 35.7638 26.4179 35.7638 26.4179C35.7065 26.3257 35.6582 26.2305 35.616 26.1352C34.9132 24.5162 36.3219 22.4732 36.7955 21.8372C36.7955 21.8372 36.8015 21.8434 36.8045 21.8465C37.0941 21.4071 37.4018 20.9862 37.7246 20.5715C38.7954 19.189 40.0081 17.6222 39.9688 15.0938C39.9417 13.06 39.1876 11.7389 38.5662 10.9862C37.073 9.18593 34.883 8.8357 33.3657 8.73125C26.9556 8.28578 21.2483 11.3119 20.6028 11.6683C17.4445 13.4348 14.6723 15.8342 12.3617 18.7988L15.9453 21.699C17.8728 19.2259 20.1805 17.2259 22.7988 15.7574C22.8652 15.7205 24.2377 14.9924 26.2588 14.3441C26.3553 15.0293 26.4066 15.7236 26.3794 16.4179C26.2738 19.4594 25.0341 22.2766 22.8923 24.3503C20.7597 26.4117 17.9935 27.4778 15.0856 27.3826C9.07668 27.1644 4.36186 21.8925 4.57905 15.6345C4.79624 9.37334 9.92432 4.43939 15.8729 4.6698C18.1745 4.75275 20.3494 5.56996 22.1623 7.03539L25.0069 3.38255C22.4278 1.29346 19.3268 0.129095 16.0418 0.00927974C7.53826 -0.276435 0.319731 6.63601 0.0090293 15.4655C-0.295639 24.295 6.395 31.7297 14.9257 32.04C15.1127 32.0461 15.2937 32.0492 15.4777 32.0492C19.4173 32.0492 23.1518 30.5285 26.0446 27.7266C29.0641 24.8081 30.8077 20.8511 30.9555 16.5807C30.9917 15.5177 30.9163 14.4547 30.7504 13.4071C30.7504 13.4071 30.7564 13.4071 30.7594 13.4071C30.7564 13.3979 30.7504 13.3918 30.7473 13.3826C31.1606 13.2474 31.788 13.0938 32.5603 13.0876C33.429 13.0815 34.6899 13.063 35.2782 13.9079C35.5165 14.2489 35.6582 14.7466 35.6009 15.2259C35.5677 15.4932 35.4863 15.6683 35.3385 15.9755C35.073 16.5254 34.7925 16.8541 34.0836 17.7635C33.9087 17.9878 33.7608 18.1752 33.6311 18.3411C32.7382 19.5362 31.7699 21.0385 31.239 23.3057C30.9525 24.5285 30.678 26.3718 31.5648 28.2489C31.6885 28.5131 32.3883 29.8833 33.9207 30.9217C34.8981 31.5853 36.1167 31.8526 37.444 31.8495C40.364 31.8495 43.7968 30.5592 46.388 29.3488C46.8797 29.7942 47.4015 30.1998 47.9837 30.5285C49.4558 31.361 51.0334 31.7758 52.7197 31.7758C54.4059 31.7758 55.8267 31.3518 57.0695 30.5039C58.0106 29.8618 58.801 29.0077 59.4495 27.9386V31.1061C59.4495 32.6514 59.172 33.9171 58.6139 34.9002C58.0559 35.8802 57.3349 36.6114 56.4481 37.0845C55.5612 37.5607 54.6472 37.7973 53.7061 37.7973C52.593 37.7973 51.6217 37.5822 50.7921 37.1521C49.9626 36.719 49.32 36.1414 48.8615 35.4133C48.403 34.6852 48.1617 33.8587 48.1346 32.9371H43.5042C43.5615 34.722 44.0049 36.2981 44.8345 37.6683C45.664 39.0354 46.8344 40.0984 48.3487 40.8603C49.863 41.6191 51.6759 41.997 53.7905 41.997C55.5914 41.997 57.2625 41.6007 58.804 40.8142C60.3454 40.0277 61.5973 38.8296 62.5535 37.2228C63.5097 35.616 63.9894 33.5792 63.9894 31.1091V11.0323H59.4465V14.3964H59.4495ZM58.6139 24.6852C58.0559 25.6375 57.35 26.3595 56.4903 26.8511C55.6336 27.3426 54.7468 27.5884 53.8328 27.5884C52.774 27.5884 51.7966 27.3426 50.8977 26.8511C49.9988 26.3595 49.2748 25.6314 48.7318 24.6637C48.1889 23.6959 47.9174 22.5285 47.9174 21.1614C47.9174 19.7942 48.1889 18.6329 48.7318 17.6806C49.2748 16.7282 49.9957 16.0062 50.8977 15.5177C51.7996 15.0262 52.777 14.7804 53.8328 14.7804C54.5205 14.7804 55.1902 14.9125 55.8478 15.1829C56.5054 15.4501 57.1057 15.8587 57.6487 16.4087C58.1916 16.9586 58.626 17.6283 58.9548 18.4179C59.2836 19.2074 59.4465 20.1229 59.4465 21.1614C59.4465 22.5592 59.169 23.7359 58.6109 24.6852H58.6139Z" fill="#2C2C2C"></path>
<path d="M82.3391 14.3961C81.6936 13.3454 80.9003 12.4975 79.9591 11.8554C78.7163 11.0075 77.2654 10.5835 75.6093 10.5835C73.9532 10.5835 72.3454 11.0013 70.8734 11.8339C69.4013 12.6664 68.2218 13.8646 67.338 15.4253C66.4512 16.986 66.0107 18.8999 66.0107 21.1611C66.0107 23.4222 66.4542 25.3393 67.338 26.9153C68.2249 28.4944 69.4043 29.6987 70.8734 30.5313C72.3454 31.3638 73.9231 31.7786 75.6093 31.7786C77.2955 31.7786 78.7163 31.3546 79.9591 30.5067C80.9003 29.8646 81.6906 29.0075 82.3391 27.9414V31.1119C82.3391 32.6572 82.0586 33.923 81.5036 34.9061C80.9455 35.8861 80.2246 36.6173 79.3377 37.0904C78.4509 37.5666 77.5369 37.8032 76.5957 37.8032C75.4796 37.8032 74.5083 37.5881 73.6817 37.158C72.8522 36.7248 72.2097 36.1472 71.7542 35.4191C71.2957 34.691 71.0544 33.8646 71.0242 32.9429H66.3969C66.4542 34.7279 66.8976 36.3039 67.7241 37.6741C68.5537 39.0413 69.7241 40.1042 71.2384 40.8661C72.7527 41.625 74.5686 42.0029 76.6802 42.0029C78.481 42.0029 80.1522 41.6065 81.6936 40.8201C83.2381 40.0336 84.4869 38.8354 85.4431 37.2287C86.3994 35.6219 86.879 33.585 86.879 31.115V11.032H82.3361V14.3992L82.3391 14.3961ZM81.5036 24.6849C80.9455 25.6373 80.2397 26.3592 79.383 26.8508C78.5263 27.3423 77.6394 27.5881 76.7254 27.5881C75.6666 27.5881 74.6893 27.3423 73.7903 26.8508C72.8884 26.3592 72.1675 25.6311 71.6245 24.6634C71.0815 23.6956 70.81 22.5282 70.81 21.1611C70.81 19.7939 71.0815 18.6327 71.6245 17.6803C72.1675 16.7279 72.8884 16.0059 73.7903 15.5174C74.6893 15.0259 75.6696 14.7801 76.7254 14.7801C77.4102 14.7801 78.0828 14.9122 78.7404 15.1826C79.398 15.4499 79.9983 15.8585 80.5413 16.4084C81.0843 16.9583 81.5187 17.628 81.8475 18.4176C82.1763 19.2072 82.3422 20.1227 82.3422 21.1611C82.3422 22.5589 82.0616 23.7356 81.5066 24.6849H81.5036Z" fill="#2C2C2C"></path>
<path d="M104.402 11.8339C102.93 11.0013 101.15 10.5835 99.0655 10.5835C96.9811 10.5835 95.1652 11.0228 93.6237 11.8984C92.0793 12.777 90.8878 14.0182 90.0461 15.625C89.2015 17.2317 88.7822 19.1211 88.7822 21.2932C88.7822 23.4652 89.1985 25.3085 90.025 26.9153C90.8546 28.5221 92.034 29.7724 93.5604 30.6634C95.0898 31.5574 96.8544 32.0028 98.8544 32.0028C101.141 32.0028 103.099 31.5359 104.725 30.5989C106.353 29.6618 107.696 28.2732 108.755 26.4268L104.725 24.774C104.124 25.8738 103.355 26.691 102.411 27.2287C101.467 27.7632 100.354 28.0305 99.0686 28.0305C97.868 28.0305 96.8544 27.7632 96.0249 27.2287C95.1953 26.6941 94.5589 25.9045 94.1184 24.8631C93.8138 24.1472 93.6298 23.3239 93.5483 22.4084H108.884C108.884 22.2916 108.89 22.0981 108.905 21.8277C108.92 21.5605 108.927 21.3085 108.927 21.0689C108.927 18.8692 108.54 16.986 107.768 15.4253C106.996 13.8646 105.874 12.6664 104.405 11.8339H104.402ZM93.6599 19.0628C93.7715 18.4391 93.9375 17.8707 94.1577 17.3669C94.6011 16.3562 95.2285 15.582 96.043 15.0474C96.8574 14.5128 97.8499 14.2456 99.0233 14.2456C99.9946 14.2456 100.845 14.4698 101.572 14.9153C102.302 15.3608 102.872 15.9875 103.286 16.7893C103.627 17.4468 103.817 18.2087 103.88 19.0658H93.6599V19.0628Z" fill="#2C2C2C"></path>
<path d="M122.371 10.8969C121.744 10.6603 121.071 10.5405 120.359 10.5405C119.358 10.5405 118.395 10.9184 117.466 11.6772C116.854 12.178 116.323 12.7986 115.859 13.5206V11.0321H111.273V31.5574H115.859V19.9998C115.859 19.0198 115.967 18.1626 116.181 17.4345C116.395 16.7064 116.745 16.1319 117.231 15.7172C117.717 15.2994 118.347 15.0904 119.116 15.0904C119.687 15.0904 120.166 15.1795 120.552 15.3577C120.938 15.5359 121.331 15.8032 121.732 16.1596L124.003 12.0981C123.545 11.5359 123.002 11.1304 122.374 10.8938L122.371 10.8969Z" fill="#2C2C2C"></path>
<path d="M42.0321 8.30076C43.6218 8.30076 44.9129 6.98893 44.9129 5.36681C44.9129 3.74469 43.6249 2.43286 42.0321 2.43286C40.4394 2.43286 39.1514 3.74469 39.1514 5.36681C39.1514 6.98893 40.4394 8.30076 42.0321 8.30076Z" fill="#2C2C2C"></path>
</g>
<defs>
<clipPath id="clip0_2179_697">
<rect width="124" height="42" fill="white"></rect>
</clipPath>
</defs>
</svg>